/* XPM */
static char *_7cfcd4a50864a72d90c38828ddbb2a1lbcOOzOQfabKc9aW[] = {
/* columns rows colors chars-per-pixel */
"64 128 11 1 ",
"  c None",
". c black",
"X c #473E18",
"o c #014200",
"O c #30782F",
"+ c #65530B",
"@ c #A18207",
"# c #A98600",
"$ c #B49C3E",
"% c #F2EE65",
"& c white",
/* pixels */
"                                                                ",
"                                                                ",
"                                                                ",
"                              .......                           ",
"                            ..%%%%%%%..                         ",
"                           .%%%%%%%%%%%.                        ",
"                          .%%%%%%%%%%%%%.                       ",
"                         .%%%%%%%%%%%%%%%.                      ",
"                        .%%%%%%%%%%%%%%%%%.                     ",
"                        .%%%%%%%%%%%%%%%%%.                     ",
"                       .%%%%%%%%%%%%%%%%%%%.                    ",
"                       .%%%+++++%%%+++++%%%.                    ",
"                       .%%%+&..+%%%+&..+%%%.                    ",
"                       .%%%+++++%%%+++++%%%.                    ",
"                       .%%%%%%%%%%%%%%%%%%%.                    ",
"                       .%%%%%%%%%%%%%%%%%%%.                    ",
"                       .%%%%%%%%%%%%%%%%%%%.                    ",
"                       .%%%%...........%%%%.                    ",
"                        .%%%%.###.###.%%%%.                     ",
"                        .%%%%%.##.##.%%%%%.                     ",
"                         .%%%%%.#.#.%%%%%.                      ",
"                          .%%%%%...%%%%%.                       ",
"                           .%%%%%%%%%%%.                        ",
"                            ..%%%%%%%..                         ",
"                             .........                          ",
"                          ...%%%%%%%%%...                       ",
"                        ...%%%%%%%%%%%%%...                     ",
"                       .@@.%%%%%%%%%%%%%.$$.                    ",
"                     ..@@@.%%%%%%%%%%%%%.$$$..                  ",
"                    .%.@@@.%%%%%%%%%%%%%.$$$.%.                 ",
"                   .%%.@@@.%%%%%%%%%%%%%.$$$.%%.                ",
"                  .%%%.@@@.%%%%%%%%%%%%%.$$$.%%%.               ",
"                  .%%%.@@@.%%%%%%%%%%%%%.$$$.%%%.               ",
"                 ......@@@...............$$$......              ",
"                .ooo@@@@@@@@@@OOOOOOOO@@@$$$$ooooo.             ",
"                .ooo@XXXX@@@@@OOOOOOOOO@@$$$oooooo.             ",
"               .oooXXXXXXXX@@@OOOOOOOOO@@@$$ooooooo.            ",
"               .oooXXXXXXXXX@@OOOOOOOOO@@@ooooooooo.            ",
"               .oXXXXXXXXXXX@@@OOOOOOOOO@ooooooooXX.            ",
"              .XXXXXXXXXXXX@@@@@OOOOOOOO@oooooooXXXX.           ",
"              .XXXXXXXXXXooo@@@@@@@OOO@@@ooooooXXXXX.           ",
"              .XXXXXXXooooooooo@@@@@@@@@@@oooooXXXXX.           ",
"              .XXXXXXoooooooooooo@@@@@@@@@@ooooXXXXX.           ",
"              .@XXXX@ooooooooooooo@@@@@@@@@oooo@@@@@.           ",
"              .@@@@@@oooooooooooooo@@@@@@@@oooo@@@@@.           ",
"              .@@@@@@ooooooooooooooo@@@@@@ooooo@@@@@.           ",
"              .@@@@@@oooooooooooooooXXXXXXoooo@@@@@@.           ",
"              .@OOOO@@ooooooooooooooXXXXXXooo@@@@@@@.           ",
"              .OOOOOO@ooooooooooooooXXXXXXXo@@$$@@@@.           ",
"               .OOOOOOOoooooooooooooXXXXXXX$$$$$$@@.            ",
"               .OOOOOOOooooooooooooXXXXXXXX$$$$$$@@.            ",
"               .OOOOOOOOoooooooooooXXXXXXX$$$$$$@@@.            ",
"                .OOOOOOO$oooooooooXXXXXXXX$$$$$@@@.             ",
"                .OOOOOOO$$$$$$$$XXXXXXXXX@@$$@@@@@.             ",
"                 .OOOOO$$$$$$$$XXXXXXXXXX@@@@@@@@.              ",
"                  .OOOO$$$$$$$XXXXXXXXXXX@@@@@@@.               ",
"                  .OO$$$$$$$$$XXXXXXXXXXXooooo@@.               ",
"                   .$$$$$$$$$$XXXXXXXXXXXoooooo.                ",
"                    .$$$$$$$$$$XXXXXXXXXoooooo.                 ",
"                     ..$$$$$$$$$$$oXXXoooooo..                  ",
"                       .$$$$$$$$$oooooooooo.                    ",
"                        ..$$$$$$$oooooooo..                     ",
"                          ...$$$$ooooo...                       ",
"                             .........                          ",
"                                                                ",
"                                                                ",
"                                                                ",
"                                                                ",
"                                                                ",
"                                                                ",
"                                                                ",
"                                                                ",
"                                                                ",
"                                                                ",
"                                                                ",
"                                                                ",
"                                                                ",
"                                                                ",
"                                                                ",
"                                                                ",
"                                                                ",
"                                                                ",
"                                                                ",
"                                                                ",
"                                                                ",
"                                                                ",
"                                                                ",
"                                                                ",
"                                                                ",
"                                                                ",
"                                                                ",
"                                                                ",
"                                                                ",
"                                                                ",
"                                                                ",
"                                                                ",
"                                                                ",
"                                                                ",
"                                                                ",
"                                                                ",
"                                                                ",
"                                                                ",
"                                                                ",
"                                                                ",
"                                                                ",
"                                                                ",
"                                                                ",
"                                                                ",
"                                                                ",
"                                                                ",
"                                                                ",
"                                                                ",
"                                                                ",
"                                                                ",
"                                                                ",
"                                                                ",
"                                                                ",
"                                                                ",
"                                                                ",
"                                                                ",
"                                                                ",
"                                                                ",
"                                                                ",
"                                                                ",
"                                                                ",
"                                                                ",
"                                                                ",
"                                                                "
};
