/* XPM */
static char *_cf1d125105348afea5cee44bf1a9394zQrVgyqp05qp9HT8[] = {
/* columns rows colors chars-per-pixel */
"64 64 6 1 ",
"  c None",
". c black",
"X c #9E6A0D",
"o c #DED25A",
"O c #E9A082",
"+ c #F3D7A4",
/* pixels */
"                                                                ",
"                                                                ",
"                                                                ",
"                            ........                            ",
"                           ..oooooo..                           ",
"                           .ooo..ooo.                           ",
"                          .oo......oo.                          ",
"                         ..oooooooooo..                         ",
"                         .o.oooooooo.o.                         ",
"                         .o..........o.                         ",
"                         .o.++++++++.o.                         ",
"                         .o.+XX++XX+.o.                         ",
"                         .o.++++++++.o.                         ",
"                         .o..+.++.+..o.                         ",
"                         .oo..+..+..oo.                         ",
"                         .ooo..++..ooo.                         ",
"                         .oooo.++.oooo.                         ",
"                         .oooo.++.oooo.                         ",
"                         ......++......                         ",
"                         ..++++++++++..                         ",
"                        ..++++++++++++..                        ",
"                       ..++++++++++++++..                       ",
"                       .++++...++...++++.                       ",
"                       .+++..O.++.O..+++.                       ",
"                       .++..OOO..OOO..++.                       ",
"                       .++.OOOO..OOOO.++.                       ",
"                       .++.OOOOOOOOOO.++.                       ",
"                       .++..OOOOOOOO..++.                       ",
"                       .++...OOOOOO...++.                       ",
"                       .++. .OOOOOO. .++.                       ",
"                       .++...OOOOOO...++.                       ",
"                       .++..OOOOOOOO..++.                       ",
"                       .+...OOOOOOOO...+.                       ",
"                       .. .OOOOOOOOOO. ..                       ",
"                         .OOOOOOOOOOOO.                         ",
"                        ..OOOOOOOOOOOO..                        ",
"                        .OOOOOOOOOOOOOO.                        ",
"                       .OOOOOOOOOOOOOOOO.                       ",
"                       .OOOOOOOOOOOOOOOO.                       ",
"                      .OOOOOOOOOOOOOOOOOO.                      ",
"                     ..OOOOOOOOOOOOOOOOOO..                     ",
"                     .OOOOOOOOOOOOOOOOOOOO.                     ",
"                     .OOOOOOOOOOOOOOOOOOOO.                     ",
"                    ..OOOOOOOOOOOOOOOOOOOO..                    ",
"                    .OOOOOOOOOOOOOOOOOOOOOO.                    ",
"                    .OOOOOOOOOOOOOOOOOOOOOO.                    ",
"                   ..OOOOOOOOOOOOOOOOOOOOOO..                   ",
"                   .OOOOOOOOOOOOOOOOOOOOOOOO.                   ",
"                   .OOOOOOOOOOOOOOOOOOOOOOOO.                   ",
"                  .OOOOOOOOOOOOOOOOOOOOOOOOOO.                  ",
"                  .OOOOOOOOOOOOOOOOOOOOOOOOOO.                  ",
"                  .OOOOOOOOOOOOOOOOOOOOOOOOOO.                  ",
"                  .OOOOOOOOOOOOOOOOOOOOOOOOOO.                  ",
"                  .OOOOOOOOOOOOOOOOOOOOOOOOOO.                  ",
"                  ............................                  ",
"                                                                ",
"                                                                ",
"                                                                ",
"                                                                ",
"                                                                ",
"                                                                ",
"                                                                ",
"                                                                ",
"                                                                "
};
