/* XPM */
static char *_44e53d4299140aeac9b810856d8d319QdRkIVgdlfFZC9vE[] = {
/* columns rows colors chars-per-pixel */
"64 64 3 1 ",
"  c black",
". c #B91212",
"X c #F7FFE1",
/* pixels */
"XXXXXXXXXXXXXXXXXXXXXXXXXXXXXXXXXXXXXXXXXXXXXXXXXXXXXXXXXXXXXXXX",
"XXXXXXXXXXXXXXXXXXXXXXXXXXXXXXXXXXXXXXXXXXXXXXXXXXXXXXXXXXXXXXXX",
"XXXXXXXXXXXXXXXXXXXXXXXXXXXXXXXXXXXXXXXXXXXXXXXXXXXXXXXXXXXXXXXX",
"XXXXXXXXXXXXXXXXXXXXXXXXXXXXXXXXXXXXXXXXXXXXXXXXXXXXXXXXXXXXXXXX",
"XXXXXXXXXXXXXXXXXXXXXXXXXXXXXXXXXXXXXXXXXXXXXXXXXXXXXXXXXXXXXXXX",
"XXXXXXXXXXXXXXXXXXXXXXXXXXXXXXXXXXXXXXXXXXXXXXXXXXXXXXXXXXXXXXXX",
"XXXXXXXXXXXXXXXXXXXXXXXXXXXXXXXXXXXXXXXXXXXXXXXXXXXXXXXXXXXXXXXX",
"XXXXXXXXXXXXXXXXXXXXXXXXXXXXXXXXXXXXXXXXXXXXXXXXXXXXXXXXXXXXXXXX",
"XXXXXXXXXXXXXXXXXXXXXXXXXXXXXXXXXXXXXXXXXXXXXXXXXXXXXXXXXXXXXXXX",
"XXXXXXXXXXXXXXXXXXXXXXXXXXXXXXXXXXXXXXXXXXXXXXXXXXXXXXXXXXXXXXXX",
"XXXXXXXXXXXXXXXX     XXXXXXXXXXXXXXXXXXXXXX     XXXXXXXXXXXXXXXX",
"XXXXXXXXXXXXXX   ....      XXXXXXXXXX      ....   XXXXXXXXXXXXXX",
"XXXXXXXXXXXXX  ...........  XXXXXXXX  ...........  XXXXXXXXXXXXX",
"XXXXXXXXXXXXX ............. XXXXXXXX ............. XXXXXXXXXXXXX",
"XXXXXXXXXXXX ............... XXXXXX ............... XXXXXXXXXXXX",
"XXXXXXXXXXX  ...............  XXXX  ...............  XXXXXXXXXXX",
"XXXXXXXXXXX ................. XXXX ................. XXXXXXXXXXX",
"XXXXXXXXXXX .................. XX .................. XXXXXXXXXXX",
"XXXXXXXXXX ...................    ................... XXXXXXXXXX",
"XXXXXXXXXX ....................  .................... XXXXXXXXXX",
"XXXXXXXXXX ....................  .................... XXXXXXXXXX",
"XXXXXXXXXX ....................  .................... XXXXXXXXXX",
"XXXXXXXXXX .......................................... XXXXXXXXXX",
"XXXXXXXXX  ..........................................  XXXXXXXXX",
"XXXXXXXXX ............................................ XXXXXXXXX",
"XXXXXXXXX ............................................ XXXXXXXXX",
"XXXXXXXXX ............................................ XXXXXXXXX",
"XXXXXXXXX ............................................ XXXXXXXXX",
"XXXXXXXXX ............................................ XXXXXXXXX",
"XXXXXXXXXX .......................................... XXXXXXXXXX",
"XXXXXXXXXX .......................................... XXXXXXXXXX",
"XXXXXXXXXX .......................................... XXXXXXXXXX",
"XXXXXXXXXX  ........................................  XXXXXXXXXX",
"XXXXXXXXXXX ........................................ XXXXXXXXXXX",
"XXXXXXXXXXXX ...................................... XXXXXXXXXXXX",
"XXXXXXXXXXXX ...................................... XXXXXXXXXXXX",
"XXXXXXXXXXXXX .................................... XXXXXXXXXXXXX",
"XXXXXXXXXXXXXX .................................. XXXXXXXXXXXXXX",
"XXXXXXXXXXXXXX .................................. XXXXXXXXXXXXXX",
"XXXXXXXXXXXXXXX ................................ XXXXXXXXXXXXXXX",
"XXXXXXXXXXXXXXXX .............................. XXXXXXXXXXXXXXXX",
"XXXXXXXXXXXXXXXXX  ..........................  XXXXXXXXXXXXXXXXX",
"XXXXXXXXXXXXXXXXXXX  ......................  XXXXXXXXXXXXXXXXXXX",
"XXXXXXXXXXXXXXXXXXXX   ..................   XXXXXXXXXXXXXXXXXXXX",
"XXXXXXXXXXXXXXXXXXXXXXX   ............   XXXXXXXXXXXXXXXXXXXXXXX",
"XXXXXXXXXXXXXXXXXXXXXXXXX  ..........  XXXXXXXXXXXXXXXXXXXXXXXXX",
"XXXXXXXXXXXXXXXXXXXXXXXXXXX  ......  XXXXXXXXXXXXXXXXXXXXXXXXXXX",
"XXXXXXXXXXXXXXXXXXXXXXXXXXXX  ....  XXXXXXXXXXXXXXXXXXXXXXXXXXXX",
"XXXXXXXXXXXXXXXXXXXXXXXXXXXXX .... XXXXXXXXXXXXXXXXXXXXXXXXXXXXX",
"XXXXXXXXXXXXXXXXXXXXXXXXXXXXXX .. XXXXXXXXXXXXXXXXXXXXXXXXXXXXXX",
"XXXXXXXXXXXXXXXXXXXXXXXXXXXXXX .. XXXXXXXXXXXXXXXXXXXXXXXXXXXXXX",
"XXXXXXXXXXXXXXXXXXXXXXXXXXXXXX    XXXXXXXXXXXXXXXXXXXXXXXXXXXXXX",
"XXXXXXXXXXXXXXXXXXXXXXXXXXXXXXX  XXXXXXXXXXXXXXXXXXXXXXXXXXXXXXX",
"XXXXXXXXXXXXXXXXXXXXXXXXXXXXXXX  XXXXXXXXXXXXXXXXXXXXXXXXXXXXXXX",
"XXXXXXXXXXXXXXXXXXXXXXXXXXXXXXX  XXXXXXXXXXXXXXXXXXXXXXXXXXXXXXX",
"XXXXXXXXXXXXXXXXXXXXXXXXXXXXXXX  XXXXXXXXXXXXXXXXXXXXXXXXXXXXXXX",
"XXXXXXXXXXXXXXXXXXXXXXXXXXXXXXXXXXXXXXXXXXXXXXXXXXXXXXXXXXXXXXXX",
"XXXXXXXXXXXXXXXXXXXXXXXXXXXXXXXXXXXXXXXXXXXXXXXXXXXXXXXXXXXXXXXX",
"XXXXXXXXXXXXXXXXXXXXXXXXXXXXXXXXXXXXXXXXXXXXXXXXXXXXXXXXXXXXXXXX",
"XXXXXXXXXXXXXXXXXXXXXXXXXXXXXXXXXXXXXXXXXXXXXXXXXXXXXXXXXXXXXXXX",
"XXXXXXXXXXXXXXXXXXXXXXXXXXXXXXXXXXXXXXXXXXXXXXXXXXXXXXXXXXXXXXXX",
"XXXXXXXXXXXXXXXXXXXXXXXXXXXXXXXXXXXXXXXXXXXXXXXXXXXXXXXXXXXXXXXX",
"XXXXXXXXXXXXXXXXXXXXXXXXXXXXXXXXXXXXXXXXXXXXXXXXXXXXXXXXXXXXXXXX",
"XXXXXXXXXXXXXXXXXXXXXXXXXXXXXXXXXXXXXXXXXXXXXXXXXXXXXXXXXXXXXXXX"
};
