/* XPM */
static char *d2b6226715ff4724b36abaf94939381dYAj0YkljDO4igs9P[] = {
/* columns rows colors chars-per-pixel */
"64 64 3 1 ",
"  c None",
". c black",
"X c #B91212",
/* pixels */
"XXXXXXXXXX.                                          .XXXXXXXXXX",
"XXXXXXXXX..                                          ..XXXXXXXXX",
"XXXXXXXX..                                            ..XXXXXXXX",
"XXXXXXX..                                              ..XXXXXXX",
"XXXXX..                                                  ..XXXXX",
"XXX..                                                      ..XXX",
"XXX.                                                        .XXX",
"X..                                                          ..X",
".                                                              .",
"                                                                ",
"                .....                      .....                ",
"              ...XXXX......          ......XXXX...              ",
"             ..XXXXXXXXXXX..        ..XXXXXXXXXXX..             ",
"             .XXXXXXXXXXXXX.        .XXXXXXXXXXXXX.             ",
"            .XXXXXXXXXXXXXXX.      .XXXXXXXXXXXXXXX.            ",
"           ..XXXXXXXXXXXXXXX..    ..XXXXXXXXXXXXXXX..           ",
"           .XXXXXXXXXXXXXXXXX.    .XXXXXXXXXXXXXXXXX.           ",
"           .XXXXXXXXXXXXXXXXXX.  .XXXXXXXXXXXXXXXXXX.           ",
"          .XXXXXXXXXXXXXXXXXXX....XXXXXXXXXXXXXXXXXXX.          ",
"          .XXXXXXXXXXXXXXXXXXXX..XXXXXXXXXXXXXXXXXXXX.          ",
"          .XXXXXXXXXXXXXXXXXXXX..XXXXXXXXXXXXXXXXXXXX.          ",
"          .XXXXXXXXXXXXXXXXXXXX..XXXXXXXXXXXXXXXXXXXX.          ",
"          .XXXXXXXXXXXXXXXXXXXXXXXXXXXXXXXXXXXXXXXXXX.          ",
"         ..XXXXXXXXXXXXXXXXXXXXXXXXXXXXXXXXXXXXXXXXXX..         ",
"         .XXXXXXXXXXXXXXXXXXXXXXXXXXXXXXXXXXXXXXXXXXXX.         ",
"         .XXXXXXXXXXXXXXXXXXXXXXXXXXXXXXXXXXXXXXXXXXXX.         ",
"         .XXXXXXXXXXXXXXXXXXXXXXXXXXXXXXXXXXXXXXXXXXXX.         ",
"         .XXXXXXXXXXXXXXXXXXXXXXXXXXXXXXXXXXXXXXXXXXXX.         ",
"         .XXXXXXXXXXXXXXXXXXXXXXXXXXXXXXXXXXXXXXXXXXXX.         ",
"          .XXXXXXXXXXXXXXXXXXXXXXXXXXXXXXXXXXXXXXXXXX.          ",
"          .XXXXXXXXXXXXXXXXXXXXXXXXXXXXXXXXXXXXXXXXXX.          ",
"          .XXXXXXXXXXXXXXXXXXXXXXXXXXXXXXXXXXXXXXXXXX.          ",
"          ..XXXXXXXXXXXXXXXXXXXXXXXXXXXXXXXXXXXXXXXX..          ",
"           .XXXXXXXXXXXXXXXXXXXXXXXXXXXXXXXXXXXXXXXX.           ",
"            .XXXXXXXXXXXXXXXXXXXXXXXXXXXXXXXXXXXXXX.            ",
"            .XXXXXXXXXXXXXXXXXXXXXXXXXXXXXXXXXXXXXX.            ",
"             .XXXXXXXXXXXXXXXXXXXXXXXXXXXXXXXXXXXX.             ",
"              .XXXXXXXXXXXXXXXXXXXXXXXXXXXXXXXXXX.              ",
"              .XXXXXXXXXXXXXXXXXXXXXXXXXXXXXXXXXX.              ",
"               .XXXXXXXXXXXXXXXXXXXXXXXXXXXXXXXX.               ",
"                .XXXXXXXXXXXXXXXXXXXXXXXXXXXXXX.                ",
"                 ..XXXXXXXXXXXXXXXXXXXXXXXXXX..                 ",
"                   ..XXXXXXXXXXXXXXXXXXXXXX..                   ",
"                    ...XXXXXXXXXXXXXXXXXX...                    ",
"                       ...XXXXXXXXXXXX...                       ",
"                         ..XXXXXXXXXX..                         ",
"                           ..XXXXXX..                           ",
"                            ..XXXX..                            ",
"                             .XXXX.                             ",
"                              .XX.                              ",
"                              .XX.                              ",
"                              ....                              ",
"                               ..                               ",
"                               ..                               ",
"   ......                      ..                      ......   ",
"  ..XXXXX..                    ..                    ..XXXXX..  ",
" ..XXXXXXX.                                          .XXXXXXX.. ",
" .XXXXXXXX.                                          .XXXXXXXX. ",
".XXXXXXXXX..                                        ..XXXXXXXXX.",
".XXXXXXXXXX.                                        .XXXXXXXXXX.",
"XXXXXXXXXX..                                        ..XXXXXXXXXX",
"XXXXXXXXXX.                                          .XXXXXXXXXX",
"XXXXXXXXX..                                          ..XXXXXXXXX",
"XXXXXXXXX.                                            .XXXXXXXXX"
};
