/* XPM */
static char *_65546c884034aafcc6b4c1697cee0a2ZGURgp4jS4kG3aO1[] = {
/* columns rows colors chars-per-pixel */
"64 64 7 1 ",
"  c #163204",
". c #143B06",
"X c #1B6A00",
"o c #9D2648",
"O c #75D13A",
"+ c #FFF200",
"@ c #ECFFDF",
/* pixels */
"XXXXXXXXXXXXXXXXXXXXXXXXXXXXXXXXXXXXXXXXXXXXXXXXXXXXXXXXXXXXXXXX",
"XXXXXXXXXXXXXXXXXXXXXXXXXXXXXXXXXXXXXXXXXXXXXXXXXXXXXXXXXXXXXXXX",
"XXXXXXXXXXXXXXXXXXXXXXXXXXXXXXXXXXXXXXXXXXXXXXXX@@@XXXXXXXXXXXXX",
"XXOOXXXXXXXXXXXXXXXXXXXXXXXXXXXXXXXXXXXXXXXXXXXX@+@XXXXXXXXXXXXX",
"XX..XXXXXXXXX@@@XXXXXXXXXXXXXXXX.....XXXXXXXXXXX@@@XXXXXXXXXXXXX",
"XXX.XXXXXXXXX@+@XXXXXXXXXXXXXX...XXXXXXXXXXXXXXXXXXXXXXXXXXXXXXX",
"XXX.XXXXXXXXX@@@XXXX.....XXXX..XXXXXXXXXXXXXXXXXXXXXXXXXXXXXXXXX",
"XXX.XOOOOXXXXXXXXXXXXXXX.OOX..XXXXXXXXXXXXXXXXXXXXX.XXXXXXXXXXXX",
"XXX.O....XXXXXXXXXXXXXXXX.OX..XXXXXXXXXXXXXXXXXXXOX..XXXO.XXXXXX",
"XXX..XXXXXXXXXXXXXXXXXXXXXOX.XXOOOXXXXXXXXXXXX....X..XXO.XXXXXXX",
"XXX..XXXXXXXXXXXXXXXXXXXXX.X.OOX...XXXXXXXXXXXXXX.Xo.O..XXOO.XXX",
"XXX.XXXXXXXXXXXXXXXXXXXXXX......XX.XXXX@@@XXXXXXX.O.........XXXX",
"XXX.XXXXXXXXXXXXXXXXXXXXXX...XXXXXXXXXX@+@XXXXXXX....o...oXXXXXX",
"XX .   XXXXXXXX@@@XXX.......XXXXXXXXXXX@@@XXXXXXX...ooo...XXXXXX",
"         XXXXXX@+@XXXXXXXX..XXXXXXXXXXXXXXXXXXXXX.o.....o.XXXXXX",
"XX    XXXXXXXXX@@@XXXXXXXXX.XXXXXXXXXXXXXXXXXXX  .......o.  XXXX",
"XXXXXXXXXXXXXXXXXXXXXXXXXXX.XXXXXXXXXXXXXXXXXX                XX",
"XXXXXXXXXXXXXXXXXXXXXXXXXXX.XXXXXXXXXXXXXXXXXXXX           XXXXX",
"XXXXXXXXXXXXXXXXXXXXXXX    .   XXXXXXXXXXXXXXXXXXXXXXXXXXXXXXXXX",
"XXXXXXXXXXXXXXXXXXXXXX     .     XXXXXXXXXXXXXXXXXXXXXXXXXXXXXXX",
"XXXXXXXXXXXXXXXXXXXXXXXXX     XXXXXXXXXXXXXXXXXXXXXXXXXXXXXXXXXX",
"XXXX@@@XXXXXXXXXXXXXXXXXXXXXXXXXXXXXX@@@XXXXXXXXXXXXXXXXXXXXXXXX",
"XXXX@+@XXXXXXXXXXXXXXXXXXXXXXXXXXXXXX@+@XXXXXXXXXXXXXXXXXXXXXXXX",
"XXXX@@@XXXXXXXXX.XXXXXXXXXXXXXXXXXXXX@@@XXXXXXXXXXXXXXXXXXXXXXXX",
"XXXXXXXXXXXXXXXX.XXXXXXXXXXXXXXXXXXXXXXXXXXXXXXXXXXXXXXXXXXXXXXX",
"XXXXXXXXXXXXXXXX.XXXO.XXXXXXXXXXXXXXXXXXXXXXXXXXXXXXXXXXX@@@XXXX",
"XXXXXXXXX...OOXX.XO..XXXXXX.XXXXXXXXXXXXXXXXXXXXXXXXXXXXX@+@XXXX",
"XXXXXXXXXXX..OOOO..o.XXX.O.OXXXXXXXXXXXXXXXXXXXXXXXXXXXXX@+@XXXX",
"XXXXXXXXXXXX.......o.XO...XXXXXXXXXXXXXXXXXXXXXXXXXXXXXXX@@@XXXX",
"XXXXXXXXXXXXX..o..o.....XXXXXXXXXXXXXXX@@@@XXXXX@@@XXXXXXXXXXXXX",
"XXXXXXXXXXX...o+o......OXOXXXXXXXXXXXXX@++@XXXXX@+@XXXXXXXXXXXXX",
"XXXXXXXX.......o...o......XXXXXXXXXXXXX@@@@XXXXX@@@XXXXXXXXXXXXX",
"XXXXXXXX.XXXX.....o+o..XX.XXXXXXXXXXXXXXXXXXXXXXXXXXXXXXXXXXXXXX",
"XXXXXXXXXXXXX......o..XXXXXXXXXXXXXXXXXXXXXXXXXXXXXXXXXXX@@@XXXX",
"XXXXXXXXXXXXX..oo.....XXXXXXXXXXXXXXXXXXXXXXXXXXXXXXXXXXX@+@XXXX",
"XXXXXXXXXXXXX.........XXXXXXXXXXXXXXXXXXXXXXXXXXXXXXXXXXX@@@XXXX",
"XXXXXXXXXXX             XXXXXXXXXXXXXXXXXXXXXXXXXXXXXXXXXXXXXXXX",
"XXXXXXXXXXX            XXXXXXXXX@@@XXXXXXXXXXXXXXXXXXXXXXXXXXXXX",
"XXXXXXXXXXXXXXXXXXXXXXXXXXXXXXXX@+@XXXXXXXXXXXXXXXXXXXXXXXXXXXXX",
"XX@@@XXXXXXXXXXXXXXXXXXXXXXXXXXX@@@XXXXXXXXXXXXXXO.XXXXXXXXXXXXX",
"XX@+@XXXXXXXXXXXXXXXXXXXXXXXXXXXXXXXXXXXXXXXXXXXXOO.XXXXXXXXXXXX",
"XX@@@XXXXXXXXXXXXXXXXXXXXXXXXXXXXXXXXXXXXXXXXXXXXXO.XXXXXXXX@@@X",
"XXXXXXXX@@@XXXXXXXXXXXXXXXXXXXXXXXXXXXXXXXXXXXXXXXO.XXXXXXXX@+@X",
"XXXXXXXX@+@XXXXXXXX@@@XXXXXXXXXXXXXXXXXXXXXXXXXXXXO.XXXXXXXX@@@X",
"XXXXXXXX@@@XXXXXXXX@+@XXXXXXXXXXXXXXXXXXXXXXXXXXXXX.XXXXXXXXXXXX",
"XXXXXXXXXXXX.OOXXXX@@@XXXXXXXXXXXXXXXXXXXXXXXXXXXXX.XXXXXXXXXXXX",
"XXXXXXXXXXXX..OXXXXXXXXXXXXXXXXXXXXXXXXXXXXXXXXXXX..XXXXXXXXXXXX",
"XXXXXXXXXXXX..OXXXXXXXXXXXXXXXXXXXXXXXXXXXXXXXXXX.OOOOXXXXXXXXXX",
"XXXXXXOOOOXX..OXXXXXXXXXXXXXX@@@XXXXXX....OOOOOO......O.XXXXXXXX",
"XXXXX....OOXX.OXXXXXXXXXXXXXX@+@XXXXX..........O.....XXX..XXXXXX",
"XXXXXXXXX.OOX.OXXXXXXXXXXXXXX@@@XXXXXXXXXXXX.......XXXXXX.XXXXXX",
"XXXXXXXXXXX.O.OXXXXXXXXXXXXXXXXXXXXXXXXXXXXXXX.....XXXXXXXXXXXXX",
"XXXXXXXXXXX.O.OOOOOXXXXXXXXXXXXXXXXXXXXXXXXXXXX....XXXXXXXXXXXXX",
"XXXXXXXXXXXX..OO..OXXXXXXXXXXXXXXXXXXXXXXXXXXXXX..XXXXXXXXXXXXXX",
"XXXXXXXXXXXX....XX..XXXXXXXXXXXXXXXXXXXXXXXXXXXX..XXXXXXXXXXXXXX",
"XXX@@@XXXXXX..XXXXXXXXXXXXXXXXXXXXXXX@@@XXXXXXXX..XXXXXXXXXXXXXX",
"XXX@+@XXXXXX..XXXXXXXXXXXXXXXXXXXXXXX@+@XXXXXXX    XXXXXXXXXXXXX",
"XXX@@@XXXXXX.XXXXXXXXXXXXXXXXXXXXXXXX@@@XXXXX       XXXXXXXX@@@X",
"XXXXXXXXXXXX.XXXXXXXXXXXXXXXXXXXXXXXXXXXXXXXX       XXXXXXXX@+@X",
"XXXXXXXXXXXX.XXXXXXXXXXXXXXXXXXXXXXXXXXXXXXXX    XXXXXXXXXXX@@@X",
"XXXXXXXXXXXX.XXXXXXXXXXXXXXXXXXXXXXXXXXXXXXXXXXXXXXXXXXXXXXXXXXX",
"XXXXXXXX        XXXXXXXX@@@XXXXXXXXXXXXXXXXXXXXXXXXXXXXXXXXXXXXX",
"XXXXXXXX          XXXXXX@+@XXXXXXXXXXXXXXXXXXXXXXXXXXXXXXXXXXXXX",
"XXXXXXXXXXX   XXXXXXXXXX@@@XXXXXXXXXXXXXXXXXXXXXXXXXXXXXXXXXXXXX"
};
