/* XPM */
static char *_7e18b1a18824220f0090cb5cb0ec26dyTRGNIbqYmBbQpGr[] = {
/* columns rows colors chars-per-pixel */
"64 64 5 1 ",
"  c None",
". c black",
"X c #203F04",
"o c #770F0F",
"O c #4C8E10",
/* pixels */
"                       .      .o..                              ",
"                       .. .....oo.      .                       ",
"                     ......ooo.oo...... .                       ",
"                    ..o.oo..o.oooo..oo...                       ",
"                ... .oo.oo.o.ooo.oo.oooo.                       ",
"                 ...oo.ooo...oo...o.ooo..                       ",
"                  .o...ooo.oo..oo.o..oo..                       ",
"                  .ooo..oo.ooo.oo..o.oo.o.                      ",
"                  .ooooo...ooo.ooo..ooo.o.                      ",
"                  .ooooooo..oo.ooo.ooo.oo.                      ",
"                  .oooooooo..o.ooo.oo..ooo.                     ",
"                ...ooooooooo.o.ooo.o..oooo.                     ",
"               .oo.ooooooooo...ooo...ooooo.                     ",
"               .oo.oo......oo.oo...ooooooo....                  ",
"               .oo..o.oooo.oo....ooooooooo.ooo.                 ",
"               ..oo.o.ooooo.o..ooooooooooo.oooo..               ",
"                ..o...ooooo..o.oooooooooo.oooooo.               ",
"                 ......ooooo.o.ooooooooo..oooooo.               ",
"                     ..ooooo.o.ooooooooo.oooo...                ",
"               .........oooo..oooooooo.......                   ",
"               .ooooooo..ooo..ooooooo..                         ",
"               .ooooooooo.....ooooo...                          ",
"                ..oooooo...........                             ",
"                 .......    .OOO..                              ",
"                            .OOOO.                              ",
"                            .OOOO..                             ",
"                            ..OOOO.                             ",
"                             .OOOO.                             ",
"                              .OOO.                             ",
"                              ..OO.                             ",
"                               .OO.                             ",
"                               .OO.                             ",
"                               .OO.                             ",
"                               .OO.                             ",
"                               .OO.                             ",
"                               .OO.        ....                 ",
"                               .OO.     ....OOO.                ",
"                               .OO.   ...OOOOOO..               ",
"                               .OO. ...OOOOOOOOO.               ",
"                               .OO...OOOOOOXOOOO.               ",
"                               .OO..OOOOOXXXOOO..               ",
"                               .OOOOOOOOXXOOOOO.                ",
"                              ..OOXXXXXXOOOOOO..                ",
"                              .OOOOOOOOOOOOO...                 ",
"                              .OOOOOOOOOO...                    ",
"                              .OOO........                      ",
"                              .OOO.                             ",
"                              .OOO.                             ",
"                              .OOO.                             ",
"                              .OOO.                             ",
"                             ..OOO.                             ",
"                             .OOO..                             ",
"                             .OOO.                              ",
"                             .OOO.                              ",
"                            ..OO..                              ",
"                            .OOO.                               ",
"                            .OOO.                               ",
"                            .OOO.                               ",
"                           ..OOO.                               ",
"                           .OOOO.                               ",
"                           .OOO..                               ",
"                           .OOO.                                ",
"                           .OOO.                                ",
"                           .....                                "
};
