/* XPM */
static char *_82697929dd84f55e940cc9393044241lLJDtjwtph7Yeaf5[] = {
/* columns rows colors chars-per-pixel */
"64 64 3 1 ",
"  c None",
". c black",
"X c #B91212",
/* pixels */
"                                                                ",
"                                                                ",
"                                                                ",
"                                                                ",
"                                                                ",
"                                                                ",
"                                                                ",
"                                                                ",
"                                                                ",
"                                     .............              ",
"               .........          ................              ",
"             ..............      ..................             ",
"            .................   .......XXXXXXXX.....            ",
"          ........XXX.........  .....XXXXXXXXXXX....            ",
"          .....XXXXXXXXXX...........XXXXXXXXXXXX.....           ",
"         .....XXXXXXXXXXXX..........XXXXXXXXXXXXX.....          ",
"         ....XXXXXXXXXXXXXXX.......XXXXXXXXXXXXXXX....          ",
"        .....XXXXXXXXXXXXXXXX.....XXXXXXXXXXXXXXXX....          ",
"        ....XXXXXXXXXXXXXXXXXX....XXXXXXXXXXXXXXXXX...          ",
"        ....XXXXXXXXXXXXXXXXXX...XXXXXXXXXXXXXXXXXX....         ",
"        ...XXXXXXXXXXXXXXXXXX....XXXXXXXXXXXXXXXXXX....         ",
"        ...XXXXXXXXXXXXXXXX......XXXXXXXXXXXXXXXXXX....         ",
"        ...XXXXXXXXXXXXXX........XXXXXXXXXXXXXXXXXXX....        ",
"        ...XXXXXXXXXXXX.........XXXXXXXXXXXXXXXXXXXX....        ",
"        ...XXXXXXXXX..........XXXXXXXXXXXXXXXXXXXXXX....        ",
"        ...XXXXXXXX..................XXXXXXXXXXXXXXXX...        ",
"        ...XXXXXXXX........................XXXXXXXXXX...        ",
"        ...XXXXXXXX........................XXXXXXXXXX...        ",
"        ...XXXXXXXXXXXXXXXXXXXXXXX.........XXXXXXXXXX...        ",
"        ...XXXXXXXXXXXXXXXXXXXX...........XXXXXXXXXXX...        ",
"        ....XXXXXXXXXXXXXXXX............XXXXXXXXXXXX....        ",
"        ....XXXXXXXXXXXXXXX.........XXXXXXXXXXXXXXXX....        ",
"        .....XXXXXXXXXXXX.........XXXXXXXXXXXXXXXXXX...         ",
"         ....XXXXXXXXXXX.......XXXXXXXXXXXXXXXXXXXX....         ",
"         .....XXXXXXXXXX.............XXXXXXXXXXXXX.....         ",
"          .....XXXXXXXXX.................XXXXXXXX.....          ",
"           .....XXXXXXXXXX..................XXXXX.....          ",
"            .....XXXXXXXXXXXXXX.............XXX......           ",
"            ......XXXXXXXXXXXXX.............XX......            ",
"             ......XXXXXXXXXX.............XX.......             ",
"              .......XXXXXX..........XXXXX........              ",
"               .......XXXXX........XXXXXX.......                ",
"                 .......XXX.........XXX........                 ",
"                  ........XXX.......X........                   ",
"                   .........XXX............                     ",
"                     .........X...........                      ",
"                       .................                        ",
"                         .............                          ",
"                           ..........                           ",
"                             ......                             ",
"                              .....                             ",
"                              ....                              ",
"                               ..                               ",
"                               ..                               ",
"                               ..                               ",
"                               ..                               ",
"                                                                ",
"                                                                ",
"                                                                ",
"                                                                ",
"                                                                ",
"                                                                ",
"                                                                ",
"                                                                "
};
